<?xml version="1.0" encoding="utf-8"?>
<!-- Generator: Adobe Adobe Illustrator 24.2.0, SVG Export Plug-In . SVG Version: 6.00 Build 0)  -->
<svg version="1.1" id="Layer_1" xmlns="http://www.w3.org/2000/svg" xmlns:xlink="http://www.w3.org/1999/xlink" x="0px" y="0px"
	 width="83px" height="83px" viewBox="0 0 83 83" style="enable-background:new 0 0 83 83;" xml:space="preserve">
<style type="text/css">
	.st0{fill:#FFFFFF;stroke:#000000;stroke-width:14;stroke-miterlimit:10;}
	.st1{fill:#E0A2D7;}
	.st2{fill:#8CC3ED;}
	.st3{fill:#FFF98F;}
	.st4{fill:#E8805A;}
	.st5{fill:#B0E3AC;}
	.st6{fill:none;stroke:#010180;stroke-width:0.9028;stroke-miterlimit:10;}
	.st7{display:none;fill:#E0A2D7;}
	.st8{display:none;fill:#8CC3ED;}
	.st9{display:none;fill:#FFF98F;}
	.st10{display:none;fill:#E8805A;}
	.st11{display:none;fill:#B0E3AC;}
</style>
<g>
	<g>
		<defs>
			<path id="SVGID_1_" d="M3.03,50.47c0.82,0.74,1.82,1.1,3.13-0.94c0.79-1.24,0.27-4.32-0.05-5.76c-0.33-1.45-0.79-2.9-0.67-4.38
				c0.2-2.46,2.22-4.61,4.51-4.8s4.56,1.61,5.07,4.01c0.71,3.33-1.78,6.81-1.12,9.41c0.33,1.31,1.92,3.02,3.2,3.25
				c1.32,0.23,3.26-0.33,4.14-1.03c3.01-2.4,3.1-4.66,2.77-7.4c-0.28-2.3-1.31-4.45-2.05-6.61c-0.74-2.17-1.51-4.37-1.61-6.68
				c-0.06-1.37,0.16-2.88,1.09-3.83c0.94-0.97,2.35-1.57,3.64-1.61c2.78-0.1,4.35,0.37,6.51,2.25c2.31,2.01,2.89,4.44,3.37,7.11
				c0.69,3.82-0.87,6.55-2.38,10.39c-0.54,1.36-1.35,3.27-0.65,5.13c0.5,1.33,3.33,1.54,4.66,1.41c3.49-0.34,6.91-1.7,6.09-8.35
				c-0.26-2.07-1.36-8.75-0.56-10.62c1.32-3.11,6.65-2.57,7.25-0.5c0.69,2.39-0.01,6.07-0.36,8.45c-0.26,1.77-0.26,3.58,0.08,5.33
				c0.38,1.99,1.47,4.21,3.31,4.68c1.84,0.47,4.69,1,5.55-0.8c1.15-2.41,1.25-6.22,0.81-8.53c-0.44-2.32-1.36-4.49-1.85-6.79
				c-0.49-2.3-0.5-4.9,0.76-6.85s4.08-2.81,5.72-1.25c0.96,0.91,1.29,2.36,1.52,3.72c0.68,4.06,0.49,7.91,0.57,12.33
				c0.03,1.64-0.01,3.26,0.17,4.87c0.44,3.94,2.23,4.54,3.73,4.25c1.43-0.28,2.03-1.37,2.45-4.99c0.18-1.56-0.41-3.25-0.43-4.82
				c-0.02-1.57,0.37-3.31,1.58-4.19c1.33-0.97,3.27-0.49,4.3,0.82c1.03,1.31,1.22,3.22,0.8,4.88c-0.33,1.31-0.72,2.59-1.19,3.86
				c-1,2.75-0.09,4.16,1.09,4.6c1.9,0.71,2.38-0.67,2.75,0.07c0.29,0.58,0.2,0.7-0.32,1.03c-1.38,0.87-3.26,0.22-4.26-1.1
				c-1-1.32-0.92-2.96-0.37-4.58c0.88-2.59,1.41-4.19,1.47-5.9c0.03-0.8-0.78-2.62-2.44-2.57c-1.24,0.04-1.74,0.66-1.95,1.86
				c-0.1,0.57-0.14,1.66-0.09,2.24c0.14,1.55,0.54,2.25,0.42,4.24c-0.1,1.56-0.89,4.17-2.1,5.2c-1.96,1.68-5.43,1.02-6.49-2.34
				c-0.8-2.51-0.7-6.06-0.68-8.77c0.02-2.71-0.22-5.04-0.2-7.71c0.01-1.49,0.06-4.38-1.48-5.41c-0.69-0.46-2.54-0.54-3.71,1.34
				c-0.66,1.05-0.38,4.08,0.02,5.29c0.85,2.57,1.64,5.21,1.73,7.95c0.09,2.73,0.15,6.86-1.63,8.84s-5.51,1.53-7.71,0.19
				c-2.64-1.6-3.72-5.76-3.37-9.28c0.19-1.92,0.5-4.44,0.8-7.39c0.19-1.88-0.84-3.27-2.72-3.1c-2.09,0.19-2.43,1.64-2.5,3.56
				c-0.11,2.9,0.84,6.67,0.92,7.23c0.12,0.95,0.31,2.48,0.22,3.54c-0.19,2.14-0.47,3.63-2.07,4.92c-1.61,1.3-3.65,1.81-5.64,2
				c-2.23,0.21-4.89-0.19-5.92-2.33c-0.59-1.22-0.45-2.7-0.17-4.05c0.51-2.47,1.91-5.14,2.7-7.54c1.32-4.03-0.31-7.81-1.71-9.82
				c-1.39-2.02-5.57-3.61-9.05-1.38c-1.5,0.96-0.66,5.17,0.06,7.47c0.55,1.75,1.97,4.99,2.39,6.77c0.63,2.68,0.78,4.84-0.47,7.27
				c-1.25,2.43-3.38,4.25-5.95,4.31s-5.15-1.83-5.76-4.51c-0.3-1.31,0.49-3.16,0.82-4.47c0.77-3.08,0.68-4.81-0.24-6.25
				c-0.71-1.11-2.66-2.39-4.96-0.85c-1.03,0.69-2.31,1.4-1.32,5.94c0.28,1.27,0.44,3.08,0.57,4.37c0.22,2.22-0.16,3.67-1.96,4.97
				c-0.9,0.65-2.27,0.65-3.05-0.16C1.71,50.75,2.39,49.9,3.03,50.47z"/>
		</defs>
		<clipPath id="SVGID_2_">
			<use xlink:href="#SVGID_1_"  style="overflow:visible;"/>
		</clipPath>
	</g>
</g>
<path class="st7" d="M51.15,8.98c3.96-0.25,7.94-0.31,11.89,0c1.38,0.11,2.04,0.3,2.04,0.3s0.19,1.6,0.15,2.38
	c-0.08,1.56-0.16,3.11-0.24,4.67c-1.55-1.98-4.09-3.02-6.6-3.16c-2.51-0.14-5.01,0.53-7.35,1.44C50.65,12.77,50.52,10.86,51.15,8.98
	z"/>
<path class="st8" d="M9.42,12.6c-1.55,0.08-3.08-0.89-3.8-2.26s-0.54-3.19,0.5-4.33s2.92-1.45,4.23-0.63
	c0.83,0.52,1.38,1.4,1.7,2.33c0.41,1.21,0.41,2.64-0.37,3.65C10.89,12.37,9.5,12.6,9.42,12.6z"/>
<path class="st9" d="M36.97,9.07c1.96,2.25,3.72,4.69,5.24,7.27c1.31-2.67,2.88-5.22,4.69-7.58C43.53,8.84,40.16,8.91,36.97,9.07z"
	/>
<path class="st10" d="M21.83,11.11c-1.02-0.39-2.13-1.13-2.14-2.22c-0.01-1.11,1.11-1.87,2.15-2.27c2.88-1.11,6.18-1.1,9.05,0.02
	c0.79,0.31,1.61,0.76,1.94,1.54c0.44,1.03-0.23,2.02-1.15,2.64C30.25,11.78,24.57,12.17,21.83,11.11z"/>
<path class="st11" d="M71.04,16.61c-0.08-2.73,0.41-5.47,1.41-8c0.4-1.01,1.03-2.1,2.1-2.29c0.69-0.12,1.4,0.19,1.9,0.66
	s0.84,1.11,1.11,1.75c1.21,2.78,1.57,5.92,1.04,8.9C76.2,16.36,73.34,15.98,71.04,16.61z"/>
</svg>
